<svg width="4128" height="310" viewBox="0 0 4128 310" fill="none" xmlns="http://www.w3.org/2000/svg">
<path d="M0.274002 307V0.902306H57.6406L199.345 100.224H201.485L343.189 0.902306H400.556V307H332.058V86.524L234.878 151.597V307H166.38V151.597L68.7714 86.524V307H0.274002ZM454.153 307V86.524H516.229V307H454.153ZM453.725 50.1348V1.75851H516.657V50.1348H453.725ZM563.27 307V86.524H755.491C780.607 86.524 798.873 92.803 810.289 105.361C821.991 117.633 827.841 133.901 827.841 154.165V307H765.766V161.443C765.766 144.319 757.204 135.757 740.079 135.757H625.346V307H563.27ZM872.646 307V86.524H934.721V307H872.646ZM872.218 50.1348V1.75851H935.15V50.1348H872.218ZM981.763 307V86.524H1267.31C1292.43 86.524 1310.84 92.803 1322.54 105.361C1334.24 117.633 1340.09 133.901 1340.09 154.165V307H1278.01V161.871C1278.01 144.461 1269.17 135.757 1251.47 135.757H1191.96V307H1129.89V135.757H1043.84V307H981.763ZM1443.86 307C1420.74 307 1403.04 301.149 1390.77 289.448C1378.5 277.746 1372.36 261.05 1372.36 239.359C1372.36 217.953 1378.5 201.4 1390.77 189.698C1403.04 177.997 1420.74 172.146 1443.86 172.146H1608.25V161.871C1608.25 144.461 1599.69 135.757 1582.56 135.757H1401.05V86.524H1598.83C1624.8 86.524 1643.21 92.5176 1654.06 104.505C1664.9 116.206 1670.33 132.76 1670.33 154.165V307H1443.86ZM1454.99 257.768H1608.25V221.378H1454.99C1449.56 221.378 1445.28 223.091 1442.14 226.516C1439.29 229.655 1437.86 233.936 1437.86 239.359C1437.86 244.782 1439.29 249.205 1442.14 252.63C1445.28 256.055 1449.56 257.768 1454.99 257.768ZM1717.58 307V0.902306H1779.65V307H1717.58ZM1822.41 155.878V0.902306H2199.15V155.878H2129.79V56.5564H2036.47V307H1967.97V56.5564H1891.77V155.878H1822.41ZM2354.86 309.141C2316.62 309.141 2286.79 299.722 2265.39 280.885C2243.98 261.763 2233.28 233.793 2233.28 196.976C2233.28 159.873 2243.98 131.904 2265.39 113.067C2286.79 93.9446 2316.62 84.3835 2354.86 84.3835H2461.89C2487 84.3835 2506.13 90.377 2519.26 102.364C2532.67 114.066 2539.38 130.905 2539.38 152.881C2539.38 197.69 2513.55 220.094 2461.89 220.094H2300.06C2306.06 246.637 2324.32 259.908 2354.86 259.908H2528.25V309.141H2354.86ZM2354.86 133.616C2325.46 133.616 2307.34 146.031 2300.49 170.861H2458.89C2464.6 170.861 2469.02 169.149 2472.16 165.724C2475.59 162.299 2477.3 157.59 2477.3 151.597C2477.3 139.61 2471.16 133.616 2458.89 133.616H2354.86ZM2690.99 309.141C2652.75 309.141 2622.92 299.722 2601.52 280.885C2580.11 261.763 2569.41 233.793 2569.41 196.976C2569.41 159.873 2580.11 131.904 2601.52 113.067C2622.92 93.9446 2652.75 84.3835 2690.99 84.3835H2834.41V133.616H2690.99C2672.44 133.616 2658.17 138.753 2648.18 149.028C2638.48 159.303 2633.63 175.285 2633.63 196.976C2633.63 218.382 2638.48 234.222 2648.18 244.496C2658.17 254.771 2672.44 259.908 2690.99 259.908H2838.69V309.141H2690.99ZM2870.63 307V0.902306H2932.7V86.524H3062.85C3087.96 86.524 3106.23 92.803 3117.64 105.361C3129.35 117.633 3135.2 133.901 3135.2 154.165V307H3073.12V161.443C3073.12 144.319 3064.56 135.757 3047.43 135.757H2932.7V307H2870.63ZM3186.42 307V0.902306H3254.92V251.346H3478.82V307H3186.42ZM3573.95 307C3550.83 307 3533.13 301.149 3520.86 289.448C3508.59 277.746 3502.45 261.05 3502.45 239.359C3502.45 217.953 3508.59 201.4 3520.86 189.698C3533.13 177.997 3550.83 172.146 3573.95 172.146H3738.34V161.871C3738.34 144.461 3729.78 135.757 3712.66 135.757H3531.14V86.524H3728.92C3754.9 86.524 3773.3 92.5176 3784.15 104.505C3794.99 116.206 3800.42 132.76 3800.42 154.165V307H3573.95ZM3585.08 257.768H3738.34V221.378H3585.08C3579.66 221.378 3575.37 223.091 3572.24 226.516C3569.38 229.655 3567.95 233.936 3567.95 239.359C3567.95 244.782 3569.38 249.205 3572.24 252.63C3575.37 256.055 3579.66 257.768 3585.08 257.768ZM3847.67 307V0.902306H3909.74V307H3847.67ZM3858.37 307V257.768H4006.07C4024.62 257.768 4038.75 252.773 4048.45 242.784C4058.44 232.509 4063.43 217.24 4063.43 196.976C4063.43 176.427 4058.44 161.158 4048.45 151.168C4038.75 140.894 4024.62 135.757 4006.07 135.757H3862.65V86.524H4006.07C4044.31 86.524 4074.14 95.9424 4095.54 114.779C4116.95 133.616 4127.65 161.015 4127.65 196.976C4127.65 232.652 4116.95 259.908 4095.54 278.745C4074.14 297.582 4044.31 307 4006.07 307H3858.37Z" fill="white"/>
</svg>
