<svg width="3438" height="311" viewBox="0 0 3438 311" fill="none" xmlns="http://www.w3.org/2000/svg">
<path d="M0.586084 308V0.549986H58.2061L200.536 100.31H202.686L345.016 0.549986H402.636V308H333.836V86.55L236.226 151.91V308H167.426V151.91L69.3861 86.55V308H0.586084ZM526.99 308C501.763 308 483.273 301.693 471.52 289.08C460.053 276.467 454.32 260.127 454.32 240.06V86.55H516.67V232.75C516.67 249.95 525.27 258.55 542.47 258.55H631.91C649.11 258.55 657.71 249.95 657.71 232.75V86.55H720.06V240.06C720.06 260.127 714.183 276.467 702.43 289.08C690.963 301.693 672.617 308 647.39 308H526.99ZM757.803 310.15V260.7H968.503C980.543 260.7 986.563 253.963 986.563 240.49C986.563 227.303 980.543 220.71 968.503 220.71H832.193C806.679 220.71 787.329 214.977 774.143 203.51C760.956 191.757 754.363 174.987 754.363 153.2C754.363 131.127 760.956 114.213 774.143 102.46C787.616 90.42 806.966 84.4 832.193 84.4H1028.27V133.85H835.203C822.876 133.85 816.713 139.87 816.713 151.91C816.713 157.93 818.433 162.66 821.873 166.1C825.313 169.54 829.756 171.26 835.203 171.26H979.683C1002.04 171.26 1019.1 177.137 1030.85 188.89C1042.89 200.357 1048.91 217.127 1048.91 239.2C1048.91 261.56 1042.89 279.047 1030.85 291.66C1018.81 303.987 1001.76 310.15 979.683 310.15H757.803ZM1199.03 310.15C1160.62 310.15 1130.66 300.69 1109.16 281.77C1087.66 262.563 1076.91 234.47 1076.91 197.49C1076.91 160.223 1087.66 132.13 1109.16 113.21C1130.66 94.0033 1160.62 84.4 1199.03 84.4H1306.53C1331.76 84.4 1350.97 90.42 1364.15 102.46C1377.63 114.213 1384.36 131.127 1384.36 153.2C1384.36 198.207 1358.42 220.71 1306.53 220.71H1143.99C1150.01 247.37 1168.36 260.7 1199.03 260.7H1373.18V310.15H1199.03ZM1199.03 133.85C1169.51 133.85 1151.3 146.32 1144.42 171.26H1303.52C1309.26 171.26 1313.7 169.54 1316.85 166.1C1320.29 162.66 1322.01 157.93 1322.01 151.91C1322.01 139.87 1315.85 133.85 1303.52 133.85H1199.03ZM1418.83 156.21V0.549986H1797.23V156.21H1727.57V56.45H1633.83V308H1565.03V56.45H1488.49V156.21H1418.83ZM1953.63 310.15C1915.22 310.15 1885.26 300.69 1863.76 281.77C1842.26 262.563 1831.51 234.47 1831.51 197.49C1831.51 160.223 1842.26 132.13 1863.76 113.21C1885.26 94.0033 1915.22 84.4 1953.63 84.4H2061.13C2086.36 84.4 2105.57 90.42 2118.75 102.46C2132.23 114.213 2138.96 131.127 2138.96 153.2C2138.96 198.207 2113.02 220.71 2061.13 220.71H1898.59C1904.61 247.37 1922.96 260.7 1953.63 260.7H2127.78V310.15H1953.63ZM1953.63 133.85C1924.11 133.85 1905.9 146.32 1899.02 171.26H2058.12C2063.86 171.26 2068.3 169.54 2071.45 166.1C2074.89 162.66 2076.61 157.93 2076.61 151.91C2076.61 139.87 2070.45 133.85 2058.12 133.85H1953.63ZM2291.25 310.15C2252.84 310.15 2222.88 300.69 2201.38 281.77C2179.88 262.563 2169.13 234.47 2169.13 197.49C2169.13 160.223 2179.88 132.13 2201.38 113.21C2222.88 94.0033 2252.84 84.4 2291.25 84.4H2435.3V133.85H2291.25C2272.62 133.85 2258.28 139.01 2248.25 149.33C2238.5 159.65 2233.63 175.703 2233.63 197.49C2233.63 218.99 2238.5 234.9 2248.25 245.22C2258.28 255.54 2272.62 260.7 2291.25 260.7H2439.6V310.15H2291.25ZM2471.57 308V1.90231H2533.65V87.524H2663.79C2688.91 87.524 2707.17 93.803 2718.59 106.361C2730.29 118.633 2736.14 134.901 2736.14 155.165V308H2674.07V162.443C2674.07 145.319 2665.5 136.757 2648.38 136.757H2533.65V308H2471.57ZM2778.4 308V93.5H2826.4V269H2983.3V308H2778.4ZM3049.96 308C3033.76 308 3021.36 303.9 3012.76 295.7C3004.16 287.5 2999.86 275.8 2999.86 260.6C2999.86 245.6 3004.16 234 3012.76 225.8C3021.36 217.6 3033.76 213.5 3049.96 213.5H3165.16V206.3C3165.16 194.1 3159.16 188 3147.16 188H3019.96V153.5H3158.56C3176.76 153.5 3189.66 157.7 3197.26 166.1C3204.86 174.3 3208.66 185.9 3208.66 200.9V308H3049.96ZM3057.76 273.5H3165.16V248H3057.76C3053.96 248 3050.96 249.2 3048.76 251.6C3046.76 253.8 3045.76 256.8 3045.76 260.6C3045.76 264.4 3046.76 267.5 3048.76 269.9C3050.96 272.3 3053.96 273.5 3057.76 273.5ZM3241.77 308V93.5H3285.27V308H3241.77ZM3249.27 308V273.5H3352.77C3365.77 273.5 3375.67 270 3382.47 263C3389.47 255.8 3392.97 245.1 3392.97 230.9C3392.97 216.5 3389.47 205.8 3382.47 198.8C3375.67 191.6 3365.77 188 3352.77 188H3252.27V153.5H3352.77C3379.57 153.5 3400.47 160.1 3415.47 173.3C3430.47 186.5 3437.97 205.7 3437.97 230.9C3437.97 255.9 3430.47 275 3415.47 288.2C3400.47 301.4 3379.57 308 3352.77 308H3249.27Z" fill="#F7F9FB"/>
</svg>
