<svg width="3718" height="310" viewBox="0 0 3718 310" fill="none" xmlns="http://www.w3.org/2000/svg">
<path d="M0.339797 307V0.902306H57.7064L199.41 100.224H201.551L343.255 0.902306H400.621V307H332.124V86.524L234.943 151.597V307H166.446V151.597L68.8372 86.524V307H0.339797ZM524.428 307C499.313 307 480.904 300.721 469.202 288.163C457.786 275.605 452.078 259.337 452.078 239.359V86.524H514.154V232.081C514.154 249.205 522.716 257.768 539.84 257.768H628.887C646.011 257.768 654.573 249.205 654.573 232.081V86.524H716.649V239.359C716.649 259.337 710.798 275.605 699.097 288.163C687.681 300.721 669.415 307 644.299 307H524.428ZM754.226 309.141V259.908H963.999C975.986 259.908 981.98 253.201 981.98 239.787C981.98 226.658 975.986 220.094 963.999 220.094H828.289C802.887 220.094 783.623 214.386 770.494 202.97C757.365 191.268 750.801 174.572 750.801 152.881C750.801 130.905 757.365 114.066 770.494 102.364C783.908 90.377 803.173 84.3835 828.289 84.3835H1023.51V133.616H831.285C819.013 133.616 812.877 139.61 812.877 151.597C812.877 157.59 814.589 162.299 818.014 165.724C821.439 169.149 825.863 170.861 831.285 170.861H975.13C997.391 170.861 1014.37 176.712 1026.07 188.414C1038.06 199.83 1044.06 216.526 1044.06 238.503C1044.06 260.764 1038.06 278.174 1026.07 290.732C1014.09 303.004 997.106 309.141 975.13 309.141H754.226ZM1193.52 309.141C1155.27 309.141 1125.45 299.722 1104.04 280.885C1082.64 261.763 1071.93 233.793 1071.93 196.976C1071.93 159.873 1082.64 131.904 1104.04 113.067C1125.45 93.9446 1155.27 84.3835 1193.52 84.3835H1300.54C1325.66 84.3835 1344.78 90.377 1357.91 102.364C1371.32 114.066 1378.03 130.905 1378.03 152.881C1378.03 197.69 1352.2 220.094 1300.54 220.094H1138.72C1144.71 246.637 1162.98 259.908 1193.52 259.908H1366.9V309.141H1193.52ZM1193.52 133.616C1164.12 133.616 1146 146.031 1139.15 170.861H1297.55C1303.25 170.861 1307.68 169.149 1310.82 165.724C1314.24 162.299 1315.95 157.59 1315.95 151.597C1315.95 139.61 1309.82 133.616 1297.55 133.616H1193.52ZM1412.35 155.878V0.902306H1789.08V155.878H1719.73V56.5564H1626.4V307H1557.9V56.5564H1481.7V155.878H1412.35ZM1944.8 309.141C1906.55 309.141 1876.73 299.722 1855.32 280.885C1833.92 261.763 1823.21 233.793 1823.21 196.976C1823.21 159.873 1833.92 131.904 1855.32 113.067C1876.73 93.9446 1906.55 84.3835 1944.8 84.3835H2051.82C2076.94 84.3835 2096.06 90.377 2109.19 102.364C2122.6 114.066 2129.31 130.905 2129.31 152.881C2129.31 197.69 2103.48 220.094 2051.82 220.094H1890C1895.99 246.637 1914.26 259.908 1944.8 259.908H2118.18V309.141H1944.8ZM1944.8 133.616C1915.4 133.616 1897.28 146.031 1890.43 170.861H2048.83C2054.53 170.861 2058.96 169.149 2062.1 165.724C2065.52 162.299 2067.23 157.59 2067.23 151.597C2067.23 139.61 2061.1 133.616 2048.83 133.616H1944.8ZM2280.93 309.141C2242.68 309.141 2212.86 299.722 2191.45 280.885C2170.05 261.763 2159.35 233.793 2159.35 196.976C2159.35 159.873 2170.05 131.904 2191.45 113.067C2212.86 93.9446 2242.68 84.3835 2280.93 84.3835H2424.34V133.616H2280.93C2262.38 133.616 2248.11 138.753 2238.12 149.028C2228.41 159.303 2223.56 175.285 2223.56 196.976C2223.56 218.382 2228.41 234.222 2238.12 244.496C2248.11 254.771 2262.38 259.908 2280.93 259.908H2428.63V309.141H2280.93ZM2460.56 307V0.902306H2522.64V86.524H2652.78C2677.9 86.524 2696.16 92.803 2707.58 105.361C2719.28 117.633 2725.13 133.901 2725.13 154.165V307H2663.06V161.443C2663.06 144.319 2654.49 135.757 2637.37 135.757H2522.64V307H2460.56ZM2776.36 307V0.902306H2844.85V251.346H3068.75V307H2776.36ZM3163.88 307C3140.76 307 3123.07 301.149 3110.8 289.448C3098.52 277.746 3092.39 261.05 3092.39 239.359C3092.39 217.953 3098.52 201.4 3110.8 189.698C3123.07 177.997 3140.76 172.146 3163.88 172.146H3328.28V161.871C3328.28 144.461 3319.71 135.757 3302.59 135.757H3121.07V86.524H3318.86C3344.83 86.524 3363.24 92.5176 3374.08 104.505C3384.93 116.206 3390.35 132.76 3390.35 154.165V307H3163.88ZM3175.01 257.768H3328.28V221.378H3175.01C3169.59 221.378 3165.31 223.091 3162.17 226.516C3159.32 229.655 3157.89 233.936 3157.89 239.359C3157.89 244.782 3159.32 249.205 3162.17 252.63C3165.31 256.055 3169.59 257.768 3175.01 257.768ZM3437.6 307V0.902306H3499.68V307H3437.6ZM3448.3 307V257.768H3596C3614.55 257.768 3628.68 252.773 3638.38 242.784C3648.37 232.509 3653.37 217.24 3653.37 196.976C3653.37 176.427 3648.37 161.158 3638.38 151.168C3628.68 140.894 3614.55 135.757 3596 135.757H3452.58V86.524H3596C3634.25 86.524 3664.07 95.9424 3685.48 114.779C3706.88 133.616 3717.58 161.015 3717.58 196.976C3717.58 232.652 3706.88 259.908 3685.48 278.745C3664.07 297.582 3634.25 307 3596 307H3448.3Z" fill="#F7F9FB"/>
</svg>
